<?xml version="1.0" standalone="no"?>
<!DOCTYPE svg PUBLIC "-//W3C//DTD SVG 20010904//EN"
 "http://www.w3.org/TR/2001/REC-SVG-20010904/DTD/svg10.dtd">
<svg version="1.0" xmlns="http://www.w3.org/2000/svg"
 width="430.000000pt" height="430.000000pt" viewBox="0 0 430.000000 430.000000"
 preserveAspectRatio="xMidYMid meet">
<metadata>
Created by potrace 1.14, written by Peter Selinger 2001-2017
</metadata>
<g transform="translate(0.000000,430.000000) scale(0.100000,-0.100000)"
fill="#000000" stroke="none">
<path d="M1400 4095 c-22 -27 -25 -177 -5 -275 18 -89 90 -342 106 -372 8 -15
5 -18 -17 -18 -33 0 -247 110 -364 188 -47 30 -103 68 -125 82 -158 104 -276
144 -388 130 -144 -18 -247 -81 -376 -230 -103 -120 -107 -150 -19 -149 29 0
73 3 98 8 107 17 282 -9 661 -99 91 -22 186 -40 210 -41 66 -2 89 -11 121 -50
l29 -36 -40 -57 c-22 -33 -42 -75 -46 -99 -4 -23 -12 -47 -17 -54 -5 -7 -17
-36 -25 -65 -13 -43 -16 -112 -17 -358 -1 -188 -7 -344 -15 -405 -9 -68 -11
-156 -7 -275 3 -96 6 -190 6 -208 0 -20 4 -31 10 -27 29 18 -7 -88 -58 -170
-21 -33 -43 -69 -49 -80 -21 -36 -73 -147 -73 -156 0 -5 -4 -9 -9 -9 -4 0 -14
-21 -21 -47 -7 -27 -21 -59 -31 -73 -9 -14 -22 -45 -29 -70 -22 -83 -43 -145
-59 -169 -12 -18 -17 -74 -23 -248 -10 -259 -7 -272 78 -363 l46 -50 15 -112
c13 -103 24 -138 42 -138 4 0 5 42 3 93 -2 50 0 87 5 82 4 -6 31 -27 58 -46
51 -36 120 -53 175 -42 28 5 157 97 201 142 15 16 51 47 81 69 54 41 200 187
231 232 15 23 17 24 28 7 6 -10 45 -57 86 -105 108 -124 200 -202 238 -202 28
0 74 42 121 113 l47 70 41 -47 c23 -25 54 -62 70 -82 43 -52 98 -84 146 -84
36 0 48 7 108 62 37 35 94 97 127 138 60 74 90 93 90 56 0 -11 6 -21 13 -24 7
-2 20 -18 28 -34 9 -17 47 -72 84 -123 115 -155 236 -265 292 -265 32 0 110
36 154 72 73 59 68 59 61 0 -7 -58 -2 -82 18 -82 15 0 23 27 32 111 4 45 12
67 30 85 19 19 23 33 23 84 0 65 -2 74 -55 295 -40 163 -66 278 -90 390 -10
44 -27 107 -38 140 -28 85 -137 304 -168 340 -14 16 -56 78 -93 136 -36 59
-73 112 -81 119 -8 7 -15 17 -15 23 0 5 -11 25 -25 43 -13 17 -29 54 -35 80
-6 27 -15 54 -21 60 -5 7 -9 38 -8 70 0 33 -4 100 -11 149 -6 50 -13 194 -14
321 -2 127 -6 236 -9 241 -3 5 -18 77 -32 160 -24 139 -46 211 -106 337 -13
27 -12 30 19 57 21 19 43 29 63 29 24 0 30 4 25 15 -7 18 17 19 149 6 50 -5
142 -12 205 -16 l115 -7 17 -39 17 -40 -34 -45 c-19 -25 -35 -49 -35 -53 0 -7
34 -36 168 -144 107 -86 120 -87 196 -7 41 43 56 66 54 82 -2 15 -40 50 -108
103 -58 44 -106 89 -108 99 -4 16 3 17 80 9 153 -15 508 -6 508 12 0 6 -44 44
-97 85 -54 41 -114 92 -133 113 -49 55 -92 80 -201 118 l-94 32 -185 -2 c-289
-4 -377 -20 -513 -98 -34 -19 -91 -46 -127 -60 -36 -14 -73 -32 -82 -40 -15
-13 -20 -14 -33 -3 -14 12 -13 16 8 39 54 59 155 235 189 331 46 129 63 221
53 291 -9 68 -26 72 -80 19 -42 -42 -59 -69 -109 -183 -31 -70 -145 -249 -190
-295 -50 -53 -62 -57 -97 -28 -38 32 -92 34 -159 5 -39 -17 -52 -18 -70 -9
-11 6 -56 20 -98 32 -119 31 -263 11 -370 -52 -32 -20 -36 -20 -53 -4 -37 33
-216 396 -234 475 -21 87 -35 108 -55 84z m1487 -96 c-6 -67 -49 -223 -68
-244 -5 -5 -9 -16 -9 -25 0 -16 -7 -30 -57 -120 -17 -30 -41 -74 -53 -98 -21
-40 -72 -87 -88 -80 -25 11 -112 75 -112 82 0 5 15 23 33 40 46 45 129 160
168 236 18 36 41 76 50 90 9 14 20 40 24 58 4 18 13 36 21 39 8 3 14 14 14 24
0 11 10 23 23 28 13 5 29 16 36 25 7 9 16 16 19 16 3 0 2 -32 -1 -71z m-1441
-50 c8 -8 14 -22 14 -29 0 -21 161 -340 188 -372 53 -62 28 -122 -48 -116 -33
2 -48 9 -62 29 -23 31 -80 214 -108 348 -21 99 -28 260 -8 191 5 -19 16 -42
24 -51z m-594 -203 c51 -27 111 -61 133 -76 160 -106 225 -146 336 -204 97
-51 135 -66 168 -66 55 0 50 -18 -10 -37 -58 -18 -295 -20 -374 -3 -33 7 -67
14 -75 15 -8 1 -27 7 -41 13 -24 9 -325 74 -429 92 -69 12 -216 15 -297 6 -53
-6 -73 -5 -73 3 0 20 144 174 208 223 86 65 162 89 274 85 82 -3 93 -6 180
-51z m2753 -196 c6 -4 37 -10 69 -14 33 -4 78 -15 101 -25 41 -18 135 -101
135 -119 0 -5 32 -34 70 -63 66 -50 69 -54 48 -62 -31 -12 -303 -14 -401 -4
-70 8 -79 11 -87 33 -14 37 -52 84 -67 84 -27 0 -23 -28 8 -59 17 -18 29 -34
27 -37 -3 -2 -38 0 -79 6 -80 10 -294 27 -505 39 -96 5 -138 11 -156 23 -14 9
-28 14 -31 11 -13 -12 20 -44 55 -54 38 -10 38 -10 22 -34 -9 -14 -24 -25 -33
-25 -20 0 -75 85 -67 106 3 8 23 22 43 30 69 28 107 46 164 79 74 43 164 74
241 84 83 10 430 11 443 1z m-910 -241 c97 -145 125 -252 180 -694 25 -200 41
-730 23 -741 -5 -3 -8 -54 -7 -112 1 -105 -7 -146 -60 -297 -22 -63 -145 -244
-198 -290 -61 -53 -80 -63 -162 -84 -99 -26 -461 -22 -581 7 -47 11 -107 22
-135 25 -78 7 -190 65 -260 134 -169 167 -240 335 -255 605 -4 81 -11 151 -14
157 -4 5 -1 13 4 16 7 4 9 19 5 35 -3 15 -2 30 2 33 5 3 10 158 11 344 2 186
7 391 12 456 9 113 11 120 51 185 23 37 47 77 54 89 16 30 181 193 195 193 6
0 8 -5 5 -11 -4 -6 2 -13 14 -16 16 -4 19 -9 11 -23 -15 -28 -12 -57 6 -64 19
-7 23 -5 92 51 29 24 57 43 61 43 5 0 5 -19 -1 -42 -5 -24 -8 -78 -6 -120 5
-131 38 -131 103 -3 51 102 65 106 65 23 0 -109 38 -119 94 -23 35 61 95 125
117 125 5 0 16 -16 24 -35 8 -19 22 -51 30 -71 13 -30 20 -35 43 -32 20 2 32
13 49 46 37 75 39 75 92 36 38 -26 58 -34 92 -34 61 0 73 10 65 53 -5 29 -3
35 13 40 11 3 36 -3 55 -14 34 -18 35 -18 41 2 4 12 1 27 -8 37 -18 21 -11 42
13 42 10 0 36 -27 65 -71z m-1315 -8 c-1 -18 -20 -32 -41 -29 -29 4 -32 31 -4
39 21 6 45 1 45 -10z m2092 -47 l38 -7 -36 -19 c-20 -11 -37 -18 -39 -16 -1 2
-8 13 -14 26 -13 25 -10 26 51 16z m26 -80 c-4 -32 21 -45 29 -16 4 17 16 11
104 -56 54 -41 99 -78 99 -81 0 -4 -24 -31 -54 -60 -35 -34 -60 -52 -70 -48
-8 3 -62 45 -120 93 -104 85 -105 87 -89 110 13 20 89 84 100 84 2 0 2 -12 1
-26z m-481 -1482 c15 -26 34 -54 43 -64 8 -10 32 -39 53 -65 137 -172 157
-204 208 -325 17 -43 36 -78 41 -78 6 0 7 -7 4 -16 -3 -8 -1 -25 6 -37 6 -12
19 -51 28 -87 46 -172 126 -498 160 -644 19 -84 6 -126 -58 -189 -61 -60 -194
-147 -225 -147 -22 0 -190 157 -229 215 -30 44 -34 34 45 116 30 32 47 60 56
95 7 27 19 74 27 104 9 30 18 76 22 102 l7 47 100 -60 c55 -33 107 -67 116
-75 20 -18 39 -18 39 0 0 14 -60 56 -181 126 -70 41 -75 45 -55 55 39 19 31
48 -28 103 -37 33 -78 59 -123 76 -82 31 -88 32 -106 6 -14 -20 -16 -19 -81
25 -75 50 -106 61 -131 48 -28 -16 -265 -233 -345 -315 -46 -48 -76 -55 -116
-26 -80 58 -141 109 -167 137 -16 17 -74 61 -128 97 -93 62 -104 67 -157 68
-61 1 -188 -41 -227 -75 -11 -10 -49 -30 -85 -45 -36 -15 -83 -40 -105 -55
-22 -16 -62 -35 -89 -45 -28 -9 -79 -34 -115 -57 -36 -22 -85 -51 -109 -64
-41 -24 -48 -43 -15 -43 8 0 54 25 102 55 48 30 95 55 105 55 19 0 51 16 131
65 28 17 70 39 95 49 25 10 52 22 60 27 63 37 152 79 160 74 5 -3 24 2 41 11
43 22 86 14 157 -30 80 -49 187 -136 187 -153 0 -8 8 -20 18 -27 9 -7 17 -17
17 -22 0 -28 -194 -274 -216 -274 -11 0 -110 106 -127 136 -5 8 -28 35 -52 60
-51 52 -77 51 -45 -1 18 -29 18 -34 5 -45 -8 -7 -15 -18 -15 -25 0 -13 -119
-126 -230 -219 -36 -29 -64 -59 -62 -66 1 -6 -2 -9 -8 -5 -5 3 -13 0 -16 -9
-3 -8 -39 -43 -81 -77 -73 -61 -75 -62 -123 -56 -76 9 -155 58 -188 115 -11
21 -47 64 -78 95 l-57 57 7 152 c4 84 11 191 15 238 11 136 115 451 190 580
21 36 50 88 64 115 23 47 63 93 71 84 2 -2 15 -26 30 -54 14 -27 32 -59 39
-70 6 -11 26 -42 43 -70 43 -70 107 -138 186 -197 37 -27 68 -55 68 -62 0 -15
84 -36 143 -36 23 -1 85 -7 137 -15 52 -8 160 -20 240 -26 262 -19 386 -1 485
72 28 20 63 45 78 54 57 37 170 228 232 393 15 40 33 78 40 85 7 7 16 37 20
65 4 29 11 50 16 46 5 -3 21 -26 36 -52z m-173 -751 c4 -5 35 -26 71 -46 36
-20 76 -47 90 -59 25 -23 25 -25 15 -97 -12 -84 -31 -135 -74 -199 l-30 -45
-8 39 c-6 27 -5 42 3 47 7 4 8 9 1 13 -6 3 -22 -7 -35 -24 -14 -16 -30 -30
-35 -30 -5 0 -23 -22 -40 -49 -46 -71 -56 -77 -89 -56 -43 28 -172 155 -205
203 l-29 42 20 27 c12 14 21 32 21 39 0 14 79 96 179 186 l63 57 38 -19 c21
-11 41 -24 44 -29z m230 -31 c51 -20 146 -91 146 -111 0 -17 -58 -9 -97 14
-61 34 -132 91 -133 105 0 17 21 15 84 -8z m-836 -227 c43 -26 52 -43 52 -95
0 -41 -7 -59 -42 -111 -47 -68 -80 -135 -73 -146 2 -4 -10 -22 -28 -39 l-33
-32 -40 37 c-21 21 -48 42 -58 48 -10 5 -23 20 -27 32 -7 19 1 33 41 79 27 31
59 75 71 97 18 36 98 145 107 147 1 0 15 -8 30 -17z m315 -153 c50 -49 96 -90
101 -90 6 0 24 -10 39 -23 l29 -23 -29 -28 c-15 -16 -45 -40 -65 -53 -20 -14
-44 -36 -53 -49 -8 -13 -25 -24 -36 -24 -21 0 -58 35 -59 56 0 6 -12 21 -26
35 -14 13 -35 41 -45 61 -16 31 -18 45 -9 82 12 54 30 96 42 96 4 0 8 11 8 25
0 14 3 25 6 25 3 0 47 -40 97 -90z"/>
<path d="M2456 2971 c-25 -27 -55 -112 -62 -174 -10 -85 36 -257 69 -257 7 0
32 -14 56 -30 67 -46 116 -38 148 23 23 44 23 202 1 277 -19 61 -63 110 -139
154 -55 31 -52 31 -73 7z m95 -59 c85 -64 109 -117 109 -242 0 -101 -26 -160
-69 -160 -58 0 -63 8 -33 52 34 52 41 141 18 221 -13 43 -26 64 -63 97 -38 33
-44 43 -33 50 22 14 32 12 71 -18z m-54 -47 c24 -17 59 -86 68 -138 8 -40 -16
-127 -41 -148 -20 -17 -60 17 -43 38 6 7 8 13 5 13 -4 0 0 7 8 16 18 18 20 53
5 107 -9 32 -14 37 -41 37 -27 0 -30 3 -24 23 4 12 9 31 10 42 2 11 4 21 5 23
3 7 29 0 48 -13z m-33 -161 c20 -8 21 -34 2 -34 -7 0 -16 9 -19 20 -6 22 -5
23 17 14z"/>
<path d="M1475 2894 c-14 -15 -28 -43 -31 -63 -4 -20 -12 -39 -18 -43 -7 -5
-11 -54 -11 -140 l0 -133 33 -37 c63 -68 134 -75 191 -16 40 41 54 87 54 178
1 92 -31 174 -90 238 -49 52 -90 57 -128 16z m96 -34 c8 0 3 -6 -11 -13 -46
-23 -64 -80 -65 -198 0 -101 1 -108 29 -148 16 -23 26 -44 23 -47 -13 -14 -72
33 -84 66 -29 84 -4 309 39 352 18 18 21 18 37 4 10 -9 24 -16 32 -16z m41
-62 c29 -34 34 -48 19 -48 -5 0 -7 -8 -4 -19 3 -14 -3 -21 -26 -29 -30 -11
-31 -12 -25 -59 4 -31 17 -61 35 -85 28 -36 28 -38 10 -48 -11 -5 -27 -17 -35
-26 -15 -14 -19 -10 -46 48 -34 72 -39 144 -16 222 25 84 45 94 88 44z m26
-180 c-6 -18 -28 -21 -28 -4 0 9 7 16 16 16 9 0 14 -5 12 -12z"/>
<path d="M1615 2176 c-89 -26 -105 -35 -122 -71 -9 -19 -20 -35 -24 -35 -11 0
-25 -86 -38 -220 -12 -134 -2 -246 24 -281 39 -51 157 -109 221 -109 19 0 65
-6 102 -14 180 -38 192 -39 414 -33 274 8 354 27 405 94 35 45 53 121 60 248
7 136 -7 215 -44 262 -16 19 -32 43 -37 52 -15 29 -97 68 -156 75 -30 4 -109
13 -175 22 -179 22 -567 28 -630 10z m440 -36 c271 -15 394 -41 454 -94 72
-64 90 -89 97 -135 9 -57 -2 -255 -16 -304 -14 -48 -63 -104 -109 -123 -70
-30 -500 -48 -591 -25 -19 5 -66 15 -105 21 -126 22 -221 58 -250 96 -14 18
-26 36 -26 39 0 2 -7 33 -15 67 -27 113 -13 348 23 396 23 31 142 64 229 64
33 0 66 3 73 7 7 5 22 6 34 5 12 -2 103 -8 202 -14z"/>
<path d="M1730 1852 c-27 -22 -39 -106 -20 -142 10 -18 17 -21 43 -16 18 4 37
12 44 19 18 17 26 126 12 143 -16 19 -53 17 -79 -4z"/>
<path d="M2320 1852 c-45 -37 -35 -162 13 -162 43 0 60 23 65 87 4 54 2 62
-19 77 -29 20 -32 20 -59 -2z"/>
<path d="M2365 1380 c-22 -35 -205 -100 -283 -100 -94 0 -252 45 -279 80 -9
12 -14 13 -25 2 -33 -32 40 -74 168 -96 154 -27 239 -17 370 44 64 31 90 53
79 70 -8 13 -22 13 -30 0z"/>
<path d="M3474 3109 c-4 -8 -3 -9 4 -5 6 4 21 2 33 -5 17 -9 20 -8 17 3 -6 17
-44 23 -54 7z"/>
<path d="M3485 3080 c6 -10 3 -12 -13 -8 -12 4 -20 2 -16 -3 7 -12 44 -12 44
0 0 6 -5 13 -12 17 -7 5 -8 3 -3 -6z"/>
<path d="M3532 3058 c-16 -16 -15 -33 4 -48 13 -11 19 -10 36 7 12 13 18 28
15 37 -7 19 -38 21 -55 4z m41 -18 c-6 -22 -43 -28 -43 -7 0 18 10 27 31 27
12 0 16 -6 12 -20z"/>
<path d="M3623 3013 c-13 -2 -23 -8 -23 -12 0 -5 12 -6 28 -3 27 5 27 5 8 -17
-11 -11 -14 -21 -9 -21 6 0 14 8 18 18 12 25 14 42 7 41 -4 -1 -17 -4 -29 -6z"/>
</g>
</svg>
